<svg width="1024" height="1024" viewBox="0 0 1024 1024" fill="none" xmlns="http://www.w3.org/2000/svg">
<g filter="url(#filter0_d_1_2)">
<rect x="30" y="30" width="964" height="964" rx="64" fill="url(#paint0_linear_1_2)"/>
</g>
<g filter="url(#filter1_d_1_2)">
<path d="M568.18 200.889H336.611C313.405 200.889 291.149 209.083 274.739 223.669C258.33 238.256 249.111 258.039 249.111 278.667V745.333C249.111 765.961 258.33 785.744 274.739 800.331C291.149 814.917 313.405 823.111 336.611 823.111H686.611C709.818 823.111 732.074 814.917 748.483 800.331C764.892 785.744 774.111 765.961 774.111 745.333V383.939C774.109 373.626 769.498 363.736 761.292 356.444L599.111 212.283C590.908 204.99 579.782 200.891 568.18 200.889ZM577.236 337V259.222L708.486 375.889H620.986C609.383 375.889 598.255 371.792 590.05 364.499C581.845 357.206 577.236 347.314 577.236 337ZM467.861 443.944C467.861 447.775 467.012 451.567 465.363 455.106C463.714 458.645 461.297 461.86 458.251 464.568C455.204 467.277 451.586 469.425 447.605 470.891C443.624 472.357 439.358 473.111 435.049 473.111C430.74 473.111 426.473 472.357 422.492 470.891C418.511 469.425 414.894 467.277 411.847 464.568C408.8 461.86 406.383 458.645 404.734 455.106C403.085 451.567 402.236 447.775 402.236 443.944C402.236 436.209 405.693 428.79 411.847 423.32C418 417.851 426.346 414.778 435.049 414.778C443.751 414.778 452.097 417.851 458.251 423.32C464.404 428.79 467.861 436.209 467.861 443.944ZM430.192 503.911L488.38 538.367L569.492 466.228C571.116 464.78 573.212 463.825 575.482 463.496C577.752 463.168 580.08 463.484 582.136 464.4L664.736 502.278V570.333C664.736 575.49 662.431 580.436 658.329 584.083C654.227 587.729 648.663 589.778 642.861 589.778H380.361C374.56 589.778 368.996 587.729 364.893 584.083C360.791 580.436 358.486 575.49 358.486 570.333V550.889C358.486 550.889 425.861 501.344 430.192 503.911ZM380.361 628.667H642.861C648.663 628.667 654.227 630.715 658.329 634.362C662.431 638.008 664.736 642.954 664.736 648.111C664.736 653.268 662.431 658.214 658.329 661.86C654.227 665.507 648.663 667.556 642.861 667.556H380.361C374.56 667.556 368.996 665.507 364.893 661.86C360.791 658.214 358.486 653.268 358.486 648.111C358.486 642.954 360.791 638.008 364.893 634.362C368.996 630.715 374.56 628.667 380.361 628.667ZM380.361 706.444H511.611C517.413 706.444 522.977 708.493 527.079 712.14C531.181 715.786 533.486 720.732 533.486 725.889C533.486 731.046 531.181 735.992 527.079 739.638C522.977 743.285 517.413 745.333 511.611 745.333H380.361C374.56 745.333 368.996 743.285 364.893 739.638C360.791 735.992 358.486 731.046 358.486 725.889C358.486 720.732 360.791 715.786 364.893 712.14C368.996 708.493 374.56 706.444 380.361 706.444Z" fill="white"/>
</g>
<defs>
<filter id="filter0_d_1_2" x="20" y="30" width="984" height="984" filterUnits="userSpaceOnUse" color-interpolation-filters="sRGB">
<feFlood flood-opacity="0" result="BackgroundImageFix"/>
<feColorMatrix in="SourceAlpha" type="matrix" values="0 0 0 0 0 0 0 0 0 0 0 0 0 0 0 0 0 0 127 0" result="hardAlpha"/>
<feOffset dy="10"/>
<feGaussianBlur stdDeviation="5"/>
<feComposite in2="hardAlpha" operator="out"/>
<feColorMatrix type="matrix" values="0 0 0 0 0 0 0 0 0 0 0 0 0 0 0 0 0 0 0.25 0"/>
<feBlend mode="normal" in2="BackgroundImageFix" result="effect1_dropShadow_1_2"/>
<feBlend mode="normal" in="SourceGraphic" in2="effect1_dropShadow_1_2" result="shape"/>
</filter>
<filter id="filter1_d_1_2" x="239.111" y="200.889" width="545" height="642.222" filterUnits="userSpaceOnUse" color-interpolation-filters="sRGB">
<feFlood flood-opacity="0" result="BackgroundImageFix"/>
<feColorMatrix in="SourceAlpha" type="matrix" values="0 0 0 0 0 0 0 0 0 0 0 0 0 0 0 0 0 0 127 0" result="hardAlpha"/>
<feOffset dy="10"/>
<feGaussianBlur stdDeviation="5"/>
<feComposite in2="hardAlpha" operator="out"/>
<feColorMatrix type="matrix" values="0 0 0 0 0 0 0 0 0 0 0 0 0 0 0 0 0 0 0.25 0"/>
<feBlend mode="normal" in2="BackgroundImageFix" result="effect1_dropShadow_1_2"/>
<feBlend mode="normal" in="SourceGraphic" in2="effect1_dropShadow_1_2" result="shape"/>
</filter>
<linearGradient id="paint0_linear_1_2" x1="512" y1="30" x2="512" y2="994" gradientUnits="userSpaceOnUse">
<stop stop-color="#2CD082"/>
<stop offset="1" stop-color="#145E3A"/>
</linearGradient>
</defs>
</svg>
