<svg width="1024" height="1024" viewBox="0 0 1024 1024" fill="none" xmlns="http://www.w3.org/2000/svg">
<g filter="url(#filter0_d_1_57)">
<rect x="30" y="30" width="964" height="964" rx="64" fill="url(#paint0_linear_1_57)"/>
</g>
<g clip-path="url(#clip0_1_57)">
<g filter="url(#filter1_d_1_57)">
<path d="M227.625 268.25C227.625 257.476 231.905 247.142 239.524 239.524C247.142 231.905 257.476 227.625 268.25 227.625H715.125C725.899 227.625 736.233 231.905 743.851 239.524C751.47 247.142 755.75 257.476 755.75 268.25V308.875H776.062C792.224 308.875 807.724 315.295 819.152 326.723C830.58 338.151 837 353.651 837 369.812V654.188C837 670.349 830.58 685.849 819.152 697.277C807.724 708.705 792.224 715.125 776.062 715.125H753.719C749.036 738.065 736.571 758.683 718.434 773.489C700.297 788.295 677.601 796.38 654.188 796.375H329.188C302.251 796.375 276.419 785.675 257.372 766.628C238.325 747.581 227.625 721.749 227.625 694.812V268.25ZM755.75 674.5H776.062C781.45 674.5 786.616 672.36 790.426 668.551C794.235 664.741 796.375 659.575 796.375 654.188V369.812C796.375 364.425 794.235 359.259 790.426 355.449C786.616 351.64 781.45 349.5 776.062 349.5H755.75V674.5Z" fill="white"/>
</g>
</g>
<defs>
<filter id="filter0_d_1_57" x="20" y="30" width="984" height="984" filterUnits="userSpaceOnUse" color-interpolation-filters="sRGB">
<feFlood flood-opacity="0" result="BackgroundImageFix"/>
<feColorMatrix in="SourceAlpha" type="matrix" values="0 0 0 0 0 0 0 0 0 0 0 0 0 0 0 0 0 0 127 0" result="hardAlpha"/>
<feOffset dy="10"/>
<feGaussianBlur stdDeviation="5"/>
<feComposite in2="hardAlpha" operator="out"/>
<feColorMatrix type="matrix" values="0 0 0 0 0 0 0 0 0 0 0 0 0 0 0 0 0 0 0.25 0"/>
<feBlend mode="normal" in2="BackgroundImageFix" result="effect1_dropShadow_1_57"/>
<feBlend mode="normal" in="SourceGraphic" in2="effect1_dropShadow_1_57" result="shape"/>
</filter>
<filter id="filter1_d_1_57" x="217.625" y="227.625" width="629.375" height="588.75" filterUnits="userSpaceOnUse" color-interpolation-filters="sRGB">
<feFlood flood-opacity="0" result="BackgroundImageFix"/>
<feColorMatrix in="SourceAlpha" type="matrix" values="0 0 0 0 0 0 0 0 0 0 0 0 0 0 0 0 0 0 127 0" result="hardAlpha"/>
<feOffset dy="10"/>
<feGaussianBlur stdDeviation="5"/>
<feComposite in2="hardAlpha" operator="out"/>
<feColorMatrix type="matrix" values="0 0 0 0 0 0 0 0 0 0 0 0 0 0 0 0 0 0 0.25 0"/>
<feBlend mode="normal" in2="BackgroundImageFix" result="effect1_dropShadow_1_57"/>
<feBlend mode="normal" in="SourceGraphic" in2="effect1_dropShadow_1_57" result="shape"/>
</filter>
<linearGradient id="paint0_linear_1_57" x1="512" y1="30" x2="512" y2="994" gradientUnits="userSpaceOnUse">
<stop stop-color="#2CD082"/>
<stop offset="1" stop-color="#145E3A"/>
</linearGradient>
<clipPath id="clip0_1_57">
<rect width="650" height="650" fill="white" transform="translate(187 187)"/>
</clipPath>
</defs>
</svg>
