<svg width="1024" height="1024" viewBox="0 0 1024 1024" fill="none" xmlns="http://www.w3.org/2000/svg">
<g filter="url(#filter0_d_1_65)">
<rect x="30" y="30" width="964" height="964" rx="64" fill="url(#paint0_linear_1_65)"/>
</g>
<g filter="url(#filter1_d_1_65)">
<path fill-rule="evenodd" clip-rule="evenodd" d="M205.75 315.125C205.75 309.323 208.055 303.759 212.157 299.657C216.259 295.555 221.823 293.25 227.625 293.25H796.375C802.177 293.25 807.741 295.555 811.843 299.657C815.945 303.759 818.25 309.323 818.25 315.125C818.25 320.927 815.945 326.491 811.843 330.593C807.741 334.695 802.177 337 796.375 337H227.625C221.823 337 216.259 334.695 212.157 330.593C208.055 326.491 205.75 320.927 205.75 315.125ZM512 424.5C517.802 424.5 523.366 426.805 527.468 430.907C531.57 435.009 533.875 440.573 533.875 446.375V699.819L627.762 605.887C631.87 601.78 637.441 599.472 643.25 599.472C649.059 599.472 654.63 601.78 658.738 605.887C662.845 609.995 665.153 615.566 665.153 621.375C665.153 627.184 662.845 632.755 658.738 636.863L527.488 768.113C525.456 770.15 523.042 771.766 520.384 772.869C517.726 773.971 514.877 774.539 512 774.539C509.123 774.539 506.274 773.971 503.616 772.869C500.958 771.766 498.544 770.15 496.512 768.113L365.262 636.863C361.155 632.755 358.847 627.184 358.847 621.375C358.847 615.566 361.155 609.995 365.262 605.887C369.37 601.78 374.941 599.472 380.75 599.472C386.559 599.472 392.13 601.78 396.238 605.887L490.125 699.819V446.375C490.125 440.573 492.43 435.009 496.532 430.907C500.634 426.805 506.198 424.5 512 424.5Z" fill="white"/>
</g>
<defs>
<filter id="filter0_d_1_65" x="20" y="30" width="984" height="984" filterUnits="userSpaceOnUse" color-interpolation-filters="sRGB">
<feFlood flood-opacity="0" result="BackgroundImageFix"/>
<feColorMatrix in="SourceAlpha" type="matrix" values="0 0 0 0 0 0 0 0 0 0 0 0 0 0 0 0 0 0 127 0" result="hardAlpha"/>
<feOffset dy="10"/>
<feGaussianBlur stdDeviation="5"/>
<feComposite in2="hardAlpha" operator="out"/>
<feColorMatrix type="matrix" values="0 0 0 0 0 0 0 0 0 0 0 0 0 0 0 0 0 0 0.25 0"/>
<feBlend mode="normal" in2="BackgroundImageFix" result="effect1_dropShadow_1_65"/>
<feBlend mode="normal" in="SourceGraphic" in2="effect1_dropShadow_1_65" result="shape"/>
</filter>
<filter id="filter1_d_1_65" x="195.75" y="293.25" width="632.5" height="501.289" filterUnits="userSpaceOnUse" color-interpolation-filters="sRGB">
<feFlood flood-opacity="0" result="BackgroundImageFix"/>
<feColorMatrix in="SourceAlpha" type="matrix" values="0 0 0 0 0 0 0 0 0 0 0 0 0 0 0 0 0 0 127 0" result="hardAlpha"/>
<feOffset dy="10"/>
<feGaussianBlur stdDeviation="5"/>
<feComposite in2="hardAlpha" operator="out"/>
<feColorMatrix type="matrix" values="0 0 0 0 0 0 0 0 0 0 0 0 0 0 0 0 0 0 0.25 0"/>
<feBlend mode="normal" in2="BackgroundImageFix" result="effect1_dropShadow_1_65"/>
<feBlend mode="normal" in="SourceGraphic" in2="effect1_dropShadow_1_65" result="shape"/>
</filter>
<linearGradient id="paint0_linear_1_65" x1="512" y1="30" x2="512" y2="994" gradientUnits="userSpaceOnUse">
<stop stop-color="#2CD082"/>
<stop offset="1" stop-color="#145E3A"/>
</linearGradient>
</defs>
</svg>
